<svg version="1.2" xmlns="http://www.w3.org/2000/svg" viewBox="0 0 50 50" width="50" height="50"><style>.a{fill:#949494}.b{fill:#545454}.c{fill:#343434}</style><path fill-rule="evenodd" class="a" d="m19 0h6v6h3v-6h3v3h6v3h-9v3h-3v3h-3v-3h3v-3h-19v-3h13zm22 6h3v3h-3zm-38 2.9h3v3.1h3v4h-6zm28 3h16v4h-16zm-31 7h6v3h-6zm19 0h6v3h-6zm18 0h10v3.1h-10zm-34 6h6v3h-6zm9 0h4v2.9h-4zm16 0h22v3h-3v3h-3v-3h-16zm-22 6h3v3h-3zm10 0h6v3h-6zm15 0h10v3h6v3h-6v-3h-10v7h-6v-7h6zm-28 10h3v2.9h-3zm6 0h3v3h-3zm35 0h6v3h-6zm-13 3h6v3h-6zm-15 3h6v3h-6z"/><path fill-rule="evenodd" class="b" d="m0 0h3v3h3v3h-3v10h-3zm16 0h3v3h-3zm31 0h3v3h-3v3h3v6h-3v-3h-3v-3h-3v3h-10v3h-6v-3h6v-3h10v-3h6zm-16 0h3v3h-3zm-25 8.9h10v3.1h-10zm13 0h3v3h-3zm-13 7h10v6h-7v3h-6v6h3v3h6v3h-9v7h6v3h-9v-10h3v-3h-3v-12h6zm19 0h3v3h3v-3h6v6h-12zm22 0h3v3h-3zm-3 6h6v3h-6zm-25 3h9v3h6v3h-6v-3h-3v3h-3v-3h-3zm28 2.9h3v6h-9v3.1h-10v-3.1h10v-2.9h6zm-31 6h9v3h-9zm31 3h3v4h-3zm-31 4h6v3h-6zm21 0h7v3h-3v3h-4zm-12 3h6v3h3v3h-12v-3h3zm22 0h3v6h-6v-3h3z"/><path fill-rule="evenodd" class="c" d="m25 0h3v6h3v3h16v3h3v4h-3v3h3v3h-3v-3h-10v-3h10v-4h-16v7h-3v-3h-3v3h-6v3h25v3h-25v3h3v3h3v-3h3v3h3v3h-9v-3h-6v6h9v4h6v-4h16v-3h3v3h-3v4h-10v3h-12v3h-9v3h-16v-3h9v-3h-3v-3h-3v-4h-3v-3h3v3h9v-3h-3v-3h-6v-3h6v-6h7v-6h-7v-4h7v-3h-13v-3h22zm-22 0h13v3h-13zm31 0h13v3h3v3h-3v-3h-6v3h-4v-3h-3zm-6 6h-3v2.9h-6v3.1h12v-3.1h-3zm-28 10.1h6v2.9h-6zm16 9h-4v3h4zm18 3h10v3h-10zm-22 13h-3v3h3zm10 0h-6v3h6zm19 3h6v3h-3v3h-10v-3h7z"/></svg>