<svg version="1.2" xmlns="http://www.w3.org/2000/svg" viewBox="0 0 50 50" width="50" height="50"><defs><linearGradient id="P" gradientUnits="userSpaceOnUse"/><linearGradient id="g1" x2="1" href="#P" gradientTransform="matrix(-1.125,22.487,-26.801,-1.341,25.687,21.261)"><stop stop-color="#04c1fb"/><stop offset="1" stop-color="#0469f8"/></linearGradient></defs><style>.a{fill:url(#g1)}</style><path class="a" d="m30.3 6.3c0 0 9.8 5.5 12.3 14.3 2.3 8 0.5 11.8 0.5 11.8q0.4 0.5 0.8 1 0.4 0.5 0.7 1.1 0.4 0.5 0.7 1.1 0.2 0.6 0.5 1.2 0.5 0.8 0.7 1.6 0.3 0.9 0.4 1.8 0 0.9-0.1 1.8-0.2 0.9-0.6 1.7c-0.2 0.6-0.1-3.2-5-3.9-4.4-0.6-6 3.7-14.5 3.5q-3.5-0.1-6.9-1-3.4-0.9-6.5-2.6-3.1-1.7-5.7-4.1-2.5-2.4-4.5-5.4c4.2 2.3 9.6 5.8 16.4 5.3 6.7-0.6 8.1-2.6 8.1-2.6q-2.8-2.3-5.5-4.7-2.7-2.5-5.2-5.1-2.5-2.6-4.8-5.4-2.3-2.8-4.5-5.8c5.4 4.5 18.5 13.3 18.2 13.1q-1.8-1.8-3.5-3.6-1.8-1.8-3.4-3.7-1.6-1.9-3.2-3.9-1.6-2-3.1-4.1c-0.9-1.3 19.8 16.3 21.4 16.2 0.6-1.4 4-8.3-3.7-19.6z"/></svg>