<svg version="1.2" xmlns="http://www.w3.org/2000/svg" viewBox="0 0 50 50" width="50" height="50"><style>.a{fill:#9cdc3c}.b{fill:#9c642c}.c{fill:#94847c}</style><path fill-rule="evenodd" class="a" d="m0 3v3h1.5 1.5v1.5 1.5h1.5 1.5v1.5 1.5h1.5 1.5v-3-3h1.5 1.5v1.5 1.5h2 2v-1.5-1.5h1.5 1.5v1.5 1.5h1.5 1.5v-3-3h1.5 1.5v3 3h1.5 1.5v-1.5-1.5h1.5 1.5v3 3h1.5 1.5v-1.5-1.5h1.5 1.5v-1.5-1.5h2 2v1.5 1.5h1.5 1.5v1.5 1.5h1.5 1.5v-1.5-1.5h1.5 1.5v-4.5-4.5h-25-25z"/><path fill-rule="evenodd" class="b" d="m22 3h3v6h3v-3h3v6h3v-3h3v-3h4v3h3v3h3v-3h3v41h-25v-3h-3v3h-22v-44h3v3h3v3h3v-6h3v3h4v-3h3v3h3zm-16 9h-3v4h3zm38 13h-3v3h3zm-13 9h-3v3h3zm-22 3h-3v4h3z"/><path fill-rule="evenodd" class="c" d="m3 12h3v4h-3zm38 13h3v3h-3zm-13 9h3v3h-3zm-22 3h3v4h-3zm16 10h3v3h-3z"/></svg>