<svg version="1.2" xmlns="http://www.w3.org/2000/svg" viewBox="0 0 50 50" width="50" height="50"><style>.a{fill:#887e4d}.b{fill:#d1d2b1}.c{fill:#73693a}.d{fill:#bdbe9d}.e{fill:#615932}</style><path fill-rule="evenodd" class="a" d="m3.6 3q1.7 0 3.5 0 0 1.8 0 3.6-1.8 0-3.5 0 0-1.8 0-3.6z"/><path fill-rule="evenodd" class="b" d="m7.1 3q16.1 0 32.2 0 0 1.8 0 3.6-14.3 0-28.6 0-1.8 0-3.6 0 0-1.8 0-3.6z"/><path fill-rule="evenodd" class="a" d="m0 6.6q1.8 0 3.6 0 0 3.6 0 7.2-1.8 0-3.6 0 0-3.6 0-7.2z"/><path fill-rule="evenodd" class="c" d="m3.6 6.6q1.7 0 3.5 0 0 3.6 0 7.2-1.8 0-3.5 0 0-3.6 0-7.2z"/><path fill-rule="evenodd" class="a" d="m7.1 6.6q1.8 0 3.6 0 0 17.9 0 35.9-1.8 0-3.6 0 0-14.4 0-28.7 0-3.6 0-7.2z"/><path fill-rule="evenodd" class="d" d="m10.7 6.6q14.3 0 28.6 0 1.8 0 3.6 0 0 16.1 0 32.3-12.5 0-25 0-1.8 0-3.6 0 0 1.8 0 3.6-1.8 0-3.6 0 0-18 0-35.9z"/><path fill-rule="evenodd" class="e" d="m21.4 17.3q0-1.8 0-3.5 1.8 0 3.6 0 0 1.7 0 3.5-1.8 0-3.6 0z"/><path fill-rule="evenodd" class="e" d="m32.2 17.3q-1.8 0-3.6 0 0-1.8 0-3.5 1.8 0 3.6 0 0 1.7 0 3.5z"/><path fill-rule="evenodd" class="e" d="m21.4 17.3q0 1.8 0 3.6-1.7 0-3.5 0 0-1.8 0-3.6 1.8 0 3.5 0z"/><path fill-rule="evenodd" class="e" d="m32.2 17.3q1.7 0 3.5 0 0 1.8 0 3.6-1.8 0-3.5 0 0-1.8 0-3.6z"/><path fill-rule="evenodd" class="e" d="m17.9 20.9q0 1.8 0 3.6-1.8 0-3.6 0 0-1.8 0-3.6 1.8 0 3.6 0z"/><path fill-rule="evenodd" class="e" d="m35.7 20.9q1.8 0 3.6 0 0 1.8 0 3.6-1.8 0-3.6 0 0-1.8 0-3.6z"/><path fill-rule="evenodd" class="e" d="m17.9 24.5q1.8 0 3.5 0 0 1.8 0 3.6-1.7 0-3.5 0 0-1.8 0-3.6z"/><path fill-rule="evenodd" class="e" d="m35.7 24.5q0 1.8 0 3.6-1.8 0-3.5 0 0-1.8 0-3.6 1.7 0 3.5 0z"/><path fill-rule="evenodd" class="e" d="m21.4 28.1q1.8 0 3.6 0 0 1.8 0 3.6-1.8 0-3.6 0 0-1.8 0-3.6z"/><path fill-rule="evenodd" class="e" d="m32.2 28.1q0 1.8 0 3.6-1.8 0-3.6 0 0-1.8 0-3.6 1.8 0 3.6 0z"/><path fill-rule="evenodd" class="a" d="m17.9 38.9q0 1.8 0 3.6-1.8 0-3.6 0 0-1.8 0-3.6 1.8 0 3.6 0z"/><path fill-rule="evenodd" class="b" d="m17.9 38.9q12.5 0 25 0 3.5 0 7.1 0 0 1.8 0 3.6-1.8 0-3.5 0-14.3 0-28.6 0 0-1.8 0-3.6z"/><path fill-rule="evenodd" class="a" d="m10.7 42.5q1.8 0 3.6 0 0 1.7 0 3.5-1.8 0-3.6 0 0-1.8 0-3.5z"/><path fill-rule="evenodd" class="d" d="m14.3 42.5q1.8 0 3.6 0 14.3 0 28.6 0 0 1.7 0 3.5-16.1 0-32.2 0 0-1.8 0-3.5z"/></svg>